<?xml version="1.0" encoding="iso-8859-1"?>
<!-- Generator: Adobe Illustrator 19.0.0, SVG Export Plug-In . SVG Version: 6.00 Build 0)  -->
<svg class="icon_hs" version="1.1" id="Capa_1" xmlns="http://www.w3.org/2000/svg" xmlns:xlink="http://www.w3.org/1999/xlink" x="0px" y="0px" viewBox="0 0 512 512" style="enable-background:new 0 0 512 512;" xml:space="preserve"><g><g><path d="M0,0v512h512V0H0z M482,482H30V30h452V482z"/></g></g><g><g><path d="M430.358,332.953c-2.871-15.81-16.598-36.474-65.507-45.588c-18.822-3.508-40.525-4.782-63.712-3.849 c-9.248-9.025-18.385-18.885-27.206-29.397s-16.944-21.223-24.226-31.897c4.944-22.672,7.459-44.267,7.273-63.412 c-0.482-49.605-18.346-66.757-33.391-72.38c-9.466-3.825-20.361-1.897-27.938,4.93c-12.212,10.432-23.126,32.66-6.615,79.43 c6.373,18.053,16.121,37.486,28.522,57.1c-3.192,12.521-7.162,25.364-11.855,38.259c-4.694,12.895-9.908,25.285-15.511,36.929 c-22.107,7.054-42.066,15.674-58.553,25.407c-43.021,25.398-48.722,49.606-45.93,65.441l0.106,0.546 c1.981,9.224,8.371,16.879,17.088,20.475l0.659,0.257c3.879,1.412,8.395,2.368,13.52,2.368c14.839,0,34.759-8.024,58.905-36.237 c12.448-14.546,24.403-32.704,35.189-53.251c12.441-3.496,25.548-6.479,39.062-8.862c13.517-2.383,26.849-4.063,39.737-5.032 c17.163,15.619,34.607,28.594,51.28,38.005c43.326,24.457,67.124,17.45,79.486,7.183 C428.656,353.006,432.326,342.921,430.358,332.953z M153.191,361.829c-17.797,20.797-31.258,26.716-38.051,25.53 c0.013-6.898,8.18-19.125,31.75-33.04c6.087-3.594,12.734-7.024,19.856-10.262C162.32,350.508,157.788,356.458,153.191,361.829z M225.938,181.427c-3.374-7.059-6.261-13.959-8.614-20.625c-9.111-25.81-7.508-40.426-3.084-45.719 c5.968,3.461,12.473,16.648,12.739,44.017C227.047,166.169,226.695,173.64,225.938,181.427z M245.026,289.679 c-5.942,1.047-11.816,2.206-17.609,3.47c2.25-5.484,4.412-11.072,6.475-16.739c2.063-5.668,3.998-11.338,5.799-16.985 c3.624,4.69,7.382,9.356,11.258,13.978c3.878,4.623,7.818,9.13,11.81,13.515C256.886,287.711,250.965,288.632,245.026,289.679z M355.999,326.069c-6.156-3.475-12.45-7.516-18.815-12.065c7.8,0.607,15.219,1.557,22.168,2.852 c26.907,5.014,38.763,13.711,41.136,20.189C394.506,340.483,379.834,339.524,355.999,326.069z"/></g></g></svg>
