<?xml version="1.0" encoding="iso-8859-1"?>
<!-- Generator: Adobe Illustrator 16.0.0, SVG Export Plug-In . SVG Version: 6.00 Build 0)  -->
<!DOCTYPE svg PUBLIC "-//W3C//DTD SVG 1.1//EN" "http://www.w3.org/Graphics/SVG/1.1/DTD/svg11.dtd">
<svg version="1.1" id="Capa_1" xmlns="http://www.w3.org/2000/svg" xmlns:xlink="http://www.w3.org/1999/xlink" x="0px" y="0px" 	 width="463.293px" height="463.293px" viewBox="0 0 463.293 463.293" style="enable-background:new 0 0 463.293 463.293;" xml:space="preserve"><g><path d="M444.518,183.948c-0.111-0.479-0.204-0.974-0.312-1.447c0.024,0.473,0.024,0.952,0.04,1.418 C444.334,183.92,444.422,183.94,444.518,183.948z"/><path d="M319.149,57.023c-18.995-5.114-39.541-7.812-61.329-7.812h-47.723c-28.393,0-54.699,4.539-78.191,13.118 c-46.24,25.56-76.414,69.289-79.05,121.373h0.092c0.559,0,1.076,0.134,1.625,0.165c18.741-66.241,77 333-104.512,155.524-104.512 h47.723c1.947,0,3.879,0.088,5.818,0.15c67.642,2.246,119.426,32.586,142.648,85.011 C397.411,117.289, 365.127,78.673,319.149,57.023z"/><path d="M419.756,347.954v64.764c-15.685,4.909-41.825,11.285-93.213-14.915c24.754-17.112,44 438-40.924,56.714-68.724 -1 .194-3.174-1.932-6.576-1.932-10.151V212.735c0-4.516,1.118-8.74,2.974-12.555c-21.212-50.187-66.704-87.694-121.77-97.462 c-9.286-1.647-18.815-2.553-28.565-2.553c-41.679,0-79.744,15.727-108.625,41.521c-0.817,0.726-1.619,1.461-2.413,2.208 c-18.398,17.104-32.742,38.435-41.723,62.37c0.479,2.09,0.786,4.24,0.786,6.472v106.177c0,1.09-0.203,2.116-0.323,3.166 c12.419,32.1,34.668,59.346,63.087,77.977c-46.255,35.434-79.595,21.412-96.585,13.722v-65.822h-26.99 c-1.08,0-2.112-0.217-3.162-0.32v75.283c0,5.214,2.683,10.043,7.103,12.804c0.495,0.305,17.208,17.309,55.984,17.309 c27.529,0,60.46-8.625,92.71-37.871c18.628,7.406,38.914,11.529,60.151,11.529c21.648,0,42.303-4.271,61.214-11.945 c91.638,55.903,144.059,22.922,146.796,21.459c4.885-2.629,7.935-7.718,7.935-13.269V346.76c-2.484,0.705-5.065,1.194-7.774,1.194 H419.756L419.756,347.954z M233.956,130.305c69.349,0,126.426,53.337,132.514,121.131c-22.687-20.763-62.007-42.918-126.174-41.693 c-34.987,0.589-60.366-6.813-75.783-22.035c-8.149-8.049-11.96-16.873-13.75-23.443c-0.172-1.545-0.339-2.914-0.503-4.224 C173.145,141.476,202.261,130.305,233.956,130.305z M100.835,263.434c0-26.457,7.851-51.079,21.206-71.815 c0.306,25.472-3.288,58.282-21.009,75.799C101.001,266.078,100.835,264.771,100.835,263.434z M233.956,396.552 c-60.362,0-111.391-40.427-127.647-95.593c4.765-2.537,9.089-5.506,12.952-8.86c21.36-18.57,29.619-48.405,32.188-75.856 c21.235,16.362,51.253,24.369,89.359,23.64c78.617-1.25,111.322,36.896,121.269,52.217c0.497,0.766,0.894,1.423,1.278,2.067 C349.426,352.767,296.764,396.552,233.956,396.552z"/><path d="M276.25,309.118c-6.239,0-11.309,5.05-11.309,11.297c0,13.188-15.669,24.333-34.222,24.333 c-18.548,0-34.219-11.145-34.219-24.333c0-6.239-5.055-11.297-11.303-11.297c-6.25,0-11.305,5.05-11.305,11.297 c0,25.884,25.491,46.935,56.819,46.935c31.332,0,56.831-21.059,56.831-46.935C287.551,314.168,282.49,309.118,276.25,309.118z"/><path d="M178.074,252.746c10.756,0,19.472,8.716,19.472,19.464c0,10.764-8.716,19.472-19.472,19.472 c-10.752,0-19.468-8.708-19.468-19.472C158.606,261.462,167.322,252.746,178.074,252.746z"/><path d="M283.563,252.746c10.748,0,19.464,8.716,19.464,19.464c0,10.764-8.716,19.472-19.464,19.472 c-10.756,0-19.472-8.708-19.472-19.472C264.092,261.462,272.808,252.746,283.563,252.746z"/><path d="M436.379,183.702c-0.577-13.737-2.721-26.99-6.328-39.62C407.646,65.272,329.4,10.264,230.72,10.264 c-111.332,0-196.658,70.018-205.13,165.25c-0.241,2.709-0.405,5.438-0.525,8.195h19.963c1.837-38.459,17.821-72.601,43.867-98.865 c33.568-33.851,83.771-54.624,141.825-54.624c50.483,0,95.01,15.723,127.851,42.076c34.224,27.469,55.691,66.495,57.836,111.413 h19.973V183.702z"/><path d="M21.178,340.104H48.16h4.789c11.698,0,21.182-9.489,21.182-21.191v-22.361v-65.309v-18.507 c0-11.7-9.484-21.183-21.182-21.183h-0.204h-0.092H21.761h-0.583c-1.429,0-2.825,0.15-4.174,0.425 C7.306,193.917,0,202.464,0,212.735v106.177c0,10.62,7.835,19.32,18.016,20.871C19.058,339.936,20.098,340.104,21.178,340.104z"/><path d="M446.245,191.971c-0.585-0.12-1.198-0.12-1.812-0.18c-0.773-0.088-1.522-0.238-2.312-0.238h-26.934h-4.837 c-0.537,0-1.042,0.118-1.562,0.156c-10.956,0.81-19.612,9.86-19.612,21.027v0.547V313.61v5.302 c0,11.702,9.478,21.191,21.175,21.191h9.405h22.365c2.75,0,5.366-0.569,7.771-1.535c7.839-3.102,13.401-10.707,13.401-19.656 V212.735C463.293,202.45,455.967,193.895,446.245,191.971z"/></g>
</svg>
