<svg id="Layer_1" enable-background="new 0 0 511.378 511.378" height="512" viewBox="0 0 511.378 511.378" width="512" xmlns="http://www.w3.org/2000/svg"><path d="m360.607 149.911c-81.128-80.465-217.589-42.75-248.244 64.895-59.34-10.434-112.363 35.6-112.363 94.216 0 52.752 42.917 95.67 95.67 95.67h309.33c31.445 0 61.101-13.805 81.365-37.875.504-.599.974-1.226 1.409-1.876 63.887-94.729-9.726-225.446-127.167-215.03zm92.919 190.684c-12.242 14.057-29.865 22.097-48.526 22.097h-309.33c-29.594 0-53.67-24.076-53.67-53.67 0-47.639 57.873-71.69 91.618-37.945 8.201 8.201 21.497 8.201 29.698 0s8.201-21.498 0-29.698c-3.733-3.733-7.71-7.076-11.865-10.062 16.477-71.347 97.968-104.37 159.496-67.234-45.199 22.784-76.278 69.632-76.278 123.609 0 11.598 9.402 21 21 21s21-9.402 21-21c0-49.179 36.927-89.487 83.973-95.543 82.251-10.486 137.587 80.598 92.884 148.446z"/></svg>